HIERARCHY
ROOT root
{
	OFFSET 0.000000 0.000000 0.000000
	CHANNELS 6 Xposition Yposition Zposition Zrotation Yrotation Xrotation
	JOINT lhip
	{
		OFFSET 0.058581 -0.082280 -0.017664
		CHANNELS 3 Zrotation Yrotation Xrotation
		JOINT lknee
		{
			OFFSET 0.043451 -0.386469 0.008037
			CHANNELS 3 Zrotation Yrotation Xrotation
			JOINT lankle
			{
				OFFSET -0.014790 -0.426874 -0.037428
				CHANNELS 3 Zrotation Yrotation Xrotation
				JOINT ltoe
				{
					OFFSET 0.041054 -0.060286 0.122042
					CHANNELS 3 Zrotation Yrotation Xrotation
					End Site
					{
						OFFSET 0.000000 0.000000 0.000000
					}
				}
			}
		}
	}
	JOINT rhip
	{
		OFFSET -0.060310 -0.090513 -0.013543
		CHANNELS 3 Zrotation Yrotation Xrotation
		JOINT rknee
		{
			OFFSET -0.043257 -0.383688 -0.004843
			CHANNELS 3 Zrotation Yrotation Xrotation
			JOINT rankle
			{
				OFFSET 0.019056 -0.420046 -0.034562
				CHANNELS 3 Zrotation Yrotation Xrotation
				JOINT rtoe
				{
					OFFSET -0.034840 -0.062106 0.130323
					CHANNELS 3 Zrotation Yrotation Xrotation
					End Site
					{
						OFFSET 0.000000 0.000000 0.000000
					}
				}
			}
		}
	}
	JOINT lowerback
	{
		OFFSET 0.004439 0.124404 -0.038385
		CHANNELS 3 Zrotation Yrotation Xrotation
		JOINT upperback
		{
			OFFSET 0.004488 0.137956 0.026820
			CHANNELS 3 Zrotation Yrotation Xrotation
			JOINT chest
			{
				OFFSET -0.002265 0.056032 0.002855
				CHANNELS 3 Zrotation Yrotation Xrotation
				JOINT lowerneck
				{
					OFFSET -0.013390 0.211636 -0.033468
					CHANNELS 3 Zrotation Yrotation Xrotation
					JOINT upperneck
					{
						OFFSET 0.010113 0.088937 0.050410
						CHANNELS 3 Zrotation Yrotation Xrotation
						End Site
						{
							OFFSET 0.000000 0.000000 0.000000
						}
					}
				}
				JOINT lclavicle
				{
					OFFSET 0.071702 0.114000 -0.018898
					CHANNELS 3 Zrotation Yrotation Xrotation
					JOINT lshoulder
					{
						OFFSET 0.122921 0.045205 -0.019046
						CHANNELS 3 Zrotation Yrotation Xrotation
						JOINT lelbow
						{
							OFFSET 0.255332 -0.015649 -0.022946
							CHANNELS 3 Zrotation Yrotation Xrotation
							JOINT lwrist
							{
								OFFSET 0.265709 0.012698 -0.007375
								CHANNELS 3 Zrotation Yrotation Xrotation
								End Site
								{
									OFFSET 0.000000 0.000000 0.000000
								}
							}
						}
					}
				}
				JOINT rclavicle
				{
					OFFSET -0.082954 0.112472 -0.023707
					CHANNELS 3 Zrotation Yrotation Xrotation
					JOINT rshoulder
					{
						OFFSET -0.113228 0.046853 -0.008472
						CHANNELS 3 Zrotation Yrotation Xrotation
						JOINT relbow
						{
							OFFSET -0.260127 -0.014369 -0.031269
							CHANNELS 3 Zrotation Yrotation Xrotation
							JOINT rwrist
							{
								OFFSET -0.269108 0.006794 -0.006027
								CHANNELS 3 Zrotation Yrotation Xrotation
								End Site
								{
									OFFSET 0.000000 0.000000 0.000000
								}
							}
						}
					}
				}
			}
		}
	}
}
MOTION
Frames: 18
Frame Time: 0.033333
2.256165 0.689326 1.007495 -86.505926 -0.543885 85.429045 -2.934310 -3.120165 4.197504 -1.613729 -14.479874 1.540664 0.780522 6.766518 -7.077370 0.000000 -0.000000 0.000000 2.493071 -4.896504 2.937989 -2.925934 -3.909371 5.197733 -0.755222 -13.239621 -10.314990 0.000000 -0.000000 0.000000 0.752271 3.994843 5.295143 -1.592667 -2.344411 3.062936 -2.115273 -0.195284 -2.477114 -0.256240 -3.815144 2.884692 2.306002 -2.446933 14.375826 -30.876618 -3.674190 2.729481 -49.340906 -6.073930 15.652356 1.947625 -21.037513 6.696907 -1.735491 -7.339269 3.139342 29.560035 8.844554 5.338677 52.889849 1.713153 20.328808 -1.023106 24.658598 10.835359 0.158340 6.555316 4.620447 
2.258848 0.690564 1.004819 -86.883108 -0.998773 86.193246 -3.463418 -3.381199 2.917163 -1.494658 -14.329766 1.855074 0.399551 6.932220 -6.201194 0.000000 -0.000000 0.000000 2.171138 -3.939398 1.448402 -3.055565 -4.283268 5.884570 -1.028435 -13.686089 -10.074433 0.000000 -0.000000 0.000000 -0.466365 3.111056 4.345682 -0.984579 -1.636274 4.777310 -2.026067 0.795244 -3.495978 -0.040393 -3.585397 2.262619 2.066622 -2.888637 14.176806 -30.070326 -3.465235 2.030065 -50.461773 -6.606420 15.967062 1.774158 -21.541708 6.126135 -2.676679 -7.537863 3.775992 28.799869 9.201816 5.188610 53.305379 2.419824 20.191867 -1.332279 24.200579 10.064393 0.915913 6.437582 4.998438 
2.260491 0.692057 1.002002 -86.771674 -1.279465 86.686001 -3.785597 -3.525676 2.160715 -1.404608 -14.504243 1.828535 0.284970 7.049925 -5.906191 0.000000 -0.000000 0.000000 2.093263 -3.545068 0.665688 -3.234929 -4.234167 5.902635 -0.968243 -13.904900 -9.655945 0.000000 -0.000000 0.000000 -1.124952 2.706426 4.134900 -0.615256 -1.343162 4.892780 -1.925468 1.345539 -3.599380 -0.133804 -3.602562 2.240684 2.060488 -2.762018 13.537079 -29.412344 -2.849919 1.073640 -51.447565 -7.120444 16.343911 1.029595 -21.455410 6.175778 -4.047224 -6.808419 4.531681 28.352819 9.003932 4.640952 53.555577 2.760857 20.298048 -1.460851 24.030662 9.678007 1.651459 6.151859 5.936384 
2.260840 0.692895 1.001334 -86.243029 -1.391420 86.747761 -3.823560 -3.625363 1.885031 -1.605867 -14.727826 2.102651 0.317355 6.856154 -6.003797 0.000000 -0.000000 0.000000 2.051756 -3.700709 0.655682 -3.332132 -4.570139 5.774752 -0.983713 -14.110184 -9.649567 0.000000 -0.000000 0.000000 -1.347014 2.730410 4.326677 -0.457472 -1.258606 4.596582 -1.807316 1.444460 -3.635664 -0.139882 -2.798673 1.951543 2.090799 -1.826126 13.694195 -29.673816 -3.007450 0.958990 -51.339199 -7.031197 16.569578 1.043432 -21.076618 6.408657 -3.346827 -7.393574 4.893310 28.598049 9.132038 4.746899 53.231014 2.845298 20.276342 -1.736983 23.641238 9.525121 1.320593 6.440470 6.653782 
2.261634 0.693174 1.001113 -86.197626 -1.532294 86.821303 -3.964058 -3.645717 1.704270 -1.637778 -14.725433 2.209099 0.384754 6.850444 -6.004290 0.000000 -0.000000 0.000000 1.925460 -3.664248 0.437458 -3.345723 -4.563264 5.949393 -1.051292 -14.050958 -9.645860 0.000000 -0.000000 0.000000 -1.336526 2.785928 4.409534 -0.538125 -1.184632 4.524502 -1.805077 1.488836 -3.590221 -0.170535 -1.650600 1.515980 2.149283 -0.690990 13.617774 -29.615742 -3.277078 0.927051 -51.389857 -6.901452 16.603109 1.163665 -20.640976 6.420175 -3.423434 -7.399307 5.028518 28.653760 9.391333 4.969051 53.199591 3.109978 20.275085 -1.871076 23.646839 9.211244 1.398092 6.470510 6.602465 
2.261754 0.693640 1.000834 -85.704991 -1.570610 86.772501 -3.996217 -3.677020 1.794403 -1.560012 -15.168636 2.004151 0.586424 6.851805 -5.967696 0.000000 -0.000000 0.000000 1.939066 -3.860750 0.603325 -3.379235 -4.562819 5.744080 -0.931609 -14.220161 -9.719520 0.000000 -0.000000 0.000000 -1.275269 2.825837 4.667252 -0.506766 -1.227909 4.485320 -1.624725 1.502515 -3.770514 0.003241 0.406885 1.007366 2.527605 2.055421 13.744724 -29.935332 -3.660463 1.041223 -51.143599 -6.694303 16.518110 1.255130 -20.104363 6.640594 -3.554407 -6.972955 4.910136 28.450428 9.423221 5.167807 53.392003 3.061549 20.323157 -2.122135 24.074933 8.826460 1.521957 6.530303 6.038465 
2.262272 0.694009 1.000780 -85.570989 -1.627992 86.747165 -4.053379 -3.721622 1.758293 -1.566093 -15.322975 2.045460 0.527343 6.984811 -5.918027 0.000000 -0.000000 0.000000 1.923513 -3.908450 0.626679 -3.430432 -4.700102 5.690201 -1.029383 -14.257945 -9.614774 0.000000 -0.000000 0.000000 -1.107630 2.764523 4.920176 -0.641246 -1.194883 4.375742 -1.508626 1.704492 -3.926517 0.211817 3.085499 0.548179 2.742762 5.240449 13.800411 -30.070578 -4.019592 1.104080 -50.982103 -6.376300 16.430886 1.397661 -19.394358 6.971665 -3.348369 -7.283999 4.799430 28.236694 9.541961 5.631952 53.682034 3.378816 20.246786 -2.152223 24.367628 8.484089 1.465302 6.816602 5.203326 
2.262070 0.694224 1.000844 -85.252700 -1.733692 86.702653 -4.154723 -3.835991 1.846364 -1.588120 -15.484145 1.987874 0.596542 6.937235 -5.837983 0.000000 -0.000000 0.000000 1.797764 -4.179369 0.787770 -3.450101 -4.820215 5.535617 -0.956411 -14.357938 -9.728091 0.000000 -0.000000 0.000000 -1.020911 2.912074 5.088515 -0.732303 -1.159146 4.056841 -1.272198 1.645481 -3.747968 0.556328 6.290304 0.230320 2.928622 9.050316 13.973166 -30.283676 -4.163091 1.110046 -50.828227 -6.083172 16.211908 1.545540 -19.269770 7.343897 -2.553774 -7.128985 4.519285 28.043304 9.321633 5.864553 53.921488 3.746798 20.239642 -2.001240 24.701432 8.363435 1.294858 6.802849 4.634594 
2.262254 0.694192 1.001057 -85.010122 -1.738485 86.735750 -4.103653 -3.951770 1.792003 -1.670888 -15.693285 1.956645 0.649106 6.979245 -5.869102 0.000000 -0.000000 0.000000 1.784382 -4.209432 0.808102 -3.401249 -4.964335 5.451620 -0.813234 -14.341518 -9.716864 0.000000 -0.000000 0.000000 -0.825633 2.952452 5.236001 -0.876688 -1.160826 3.732348 -1.078508 1.840420 -3.668655 0.721724 9.857341 -0.185641 3.399518 12.510920 14.235210 -30.221595 -4.513244 1.347485 -50.806454 -5.770135 15.717132 1.509190 -19.117747 7.566131 -3.096052 -6.659684 3.952360 28.053265 9.452088 6.604801 53.988323 3.980144 20.235993 -2.254617 25.380779 8.339215 1.673787 6.716126 4.059502 
2.262724 0.694190 1.001401 -84.834353 -1.764102 86.651904 -4.106654 -4.048092 1.768748 -1.720157 -15.749408 2.054814 0.824190 7.055212 -5.900382 0.000000 -0.000000 0.000000 1.725028 -4.357989 0.795627 -3.358835 -5.154373 5.591316 -0.760952 -14.146176 -9.896611 0.000000 -0.000000 0.000000 -0.483137 3.078160 5.706167 -1.135689 -0.956096 3.315499 -0.940279 2.142479 -3.803748 0.989367 13.529240 -0.372242 3.729972 16.633558 14.696961 -30.196194 -4.793256 1.278606 -50.818160 -5.496725 15.358045 1.651942 -19.162930 7.537906 -1.678986 -6.780929 3.440224 27.901805 9.605109 7.321479 54.293024 4.411392 20.369542 -2.097593 25.308646 8.524946 1.091090 7.106272 3.788394 
2.262600 0.694005 1.001567 -84.515758 -1.787508 86.776392 -4.121817 -4.100383 1.681726 -1.737172 -16.062232 1.933659 0.764835 7.037838 -5.800961 0.000000 -0.000000 0.000000 1.696607 -4.489777 0.845395 -3.334826 -5.277311 5.278471 -0.670388 -14.164166 -9.913911 0.000000 -0.000000 0.000000 -0.269670 3.187989 5.766860 -1.228386 -0.767143 2.965655 -0.836097 2.401534 -3.881896 0.828943 15.764937 -0.316326 3.938320 18.994638 14.832109 -30.113128 -4.870966 1.214052 -50.971193 -5.388026 15.094112 1.599644 -19.039645 7.661355 -2.154251 -7.022255 3.130622 27.606648 9.435286 7.753481 54.526599 4.418812 20.314383 -1.838010 25.319202 9.013299 1.084222 7.305918 4.076255 
2.262689 0.694070 1.001575 -84.337328 -2.026032 86.729486 -4.386379 -4.153120 1.877693 -1.655071 -16.168876 1.583669 0.679543 7.075768 -5.488075 0.000000 -0.000000 0.000000 1.476701 -4.539067 0.981461 -3.440670 -5.414022 5.128796 -0.642579 -14.159895 -9.839227 0.000000 -0.000000 0.000000 -0.187795 3.283197 5.881711 -1.455870 -0.501650 2.983055 -0.859544 2.651020 -3.979993 0.601020 17.421725 -0.473544 3.895895 20.489076 14.910286 -30.093805 -4.934781 1.143862 -50.954474 -5.462861 14.889233 1.689550 -19.198420 7.848068 -3.142884 -6.974417 2.908897 27.433007 9.482260 8.176919 54.767983 4.572559 20.303380 -1.918434 25.333105 8.957222 1.882454 6.951796 3.763562 
2.261917 0.693465 1.001884 -83.448237 -2.148569 86.695091 -4.562619 -4.269221 1.903713 -1.608156 -16.560203 1.588281 0.734708 6.852224 -5.477350 0.000000 -0.000000 0.000000 1.232378 -4.796309 1.358277 -3.343068 -5.792896 4.701447 -0.470807 -14.308255 -9.718502 0.000000 -0.000000 0.000000 -0.211291 3.284310 5.708618 -1.441694 -0.630845 3.227546 -0.824320 2.712618 -4.137711 0.087903 18.223837 -0.588957 3.894596 21.239001 14.904785 -30.106689 -5.304233 1.529029 -50.883594 -5.453060 14.808816 1.603989 -19.495188 8.028578 -2.550150 -7.343162 2.692490 27.400204 9.594915 8.565587 54.630648 4.360172 20.014353 -1.746299 25.420156 8.821151 1.324103 7.170766 3.557517 
2.262571 0.693844 1.002020 -82.918277 -2.292539 86.637308 -4.670171 -4.380904 1.795793 -1.696978 -16.770431 1.654868 0.380803 6.847338 -5.304842 0.000000 -0.000000 0.000000 1.124220 -4.697546 1.352118 -3.377360 -6.128251 4.826141 -0.612308 -14.486794 -9.791045 0.000000 -0.000000 0.000000 -0.016800 3.418994 5.841191 -1.772555 -0.492451 3.411817 -0.925081 2.464342 -4.240170 -0.171541 18.657367 -0.895024 3.647651 21.444581 14.620243 -29.995258 -5.419626 1.477902 -50.818636 -5.597343 14.643673 1.522481 -19.548031 8.219834 -2.467115 -7.870537 3.056935 27.496426 9.840067 8.693857 54.597309 4.292497 20.223830 -1.287523 24.605835 10.191205 1.268794 7.680993 5.032282 
2.263004 0.694451 1.001965 -82.371930 -2.136121 86.584363 -4.458031 -4.424766 1.718425 -1.753057 -16.968976 1.774326 0.257345 6.487867 -5.305092 0.000000 -0.000000 0.000000 1.350529 -4.905275 1.427348 -3.412712 -6.471465 4.749944 -0.610643 -14.587371 -9.716592 0.000000 -0.000000 0.000000 0.198250 3.362844 6.208525 -1.848483 -0.452639 3.173438 -0.906517 2.476962 -4.382865 -0.389201 18.719234 -0.971137 3.572444 21.489739 14.392110 -30.277389 -5.550927 1.730663 -50.714998 -5.580356 14.524734 1.695743 -19.790939 8.397601 -2.355128 -7.582456 2.995080 27.547135 10.039835 8.934440 54.497918 4.326074 20.071746 -1.304024 24.439680 10.113842 1.306876 7.432580 4.619369 
2.262557 0.694750 1.001565 -81.954052 -2.247083 86.475628 -4.602169 -4.573645 1.807148 -1.745827 -17.062584 1.813704 0.188331 6.447768 -5.325130 0.000000 -0.000000 0.000000 1.302415 -4.901980 1.644950 -3.478269 -6.512807 4.650044 -0.610774 -14.763992 -9.840521 0.000000 -0.000000 0.000000 0.091892 3.476077 6.395079 -1.866313 -0.353348 2.832334 -0.903600 2.417587 -4.116142 -0.413298 18.764661 -1.122701 3.622531 21.426967 14.419864 -30.082509 -5.521512 1.640609 -50.892013 -5.604263 14.509975 1.216042 -20.165849 8.449319 -2.158947 -7.291042 2.842081 27.479963 9.779353 8.825732 54.538643 4.344715 19.992515 -1.180101 24.455308 10.385331 1.583291 7.080931 5.168795 
2.262806 0.694998 1.001646 -81.605838 -2.302659 86.439207 -4.670999 -4.670247 1.789297 -1.771367 -17.251219 1.876165 0.224406 6.428408 -5.374628 0.000000 -0.000000 0.000000 1.280052 -4.944823 1.691008 -3.546114 -6.635626 4.647563 -0.696021 -15.031980 -9.794840 0.000000 -0.000000 0.000000 -0.059865 3.459085 6.565479 -1.861914 -0.284220 2.678421 -0.841270 2.449372 -4.111161 -0.418451 18.713305 -1.382795 3.731027 21.389767 14.476415 -30.221381 -5.574297 1.640915 -50.947071 -5.691373 14.591418 1.278265 -19.792084 8.651279 -2.075092 -7.574003 3.054780 27.519506 9.874083 8.753142 54.507684 4.233473 20.022194 -1.245559 24.350418 10.400142 1.396065 7.203794 5.165719 
2.262959 0.695286 1.001901 -81.246233 -2.330699 86.618440 -4.651838 -4.781151 1.459348 -1.760606 -17.167098 2.063889 0.223713 6.252574 -5.448586 0.000000 -0.000000 0.000000 1.244045 -5.159380 1.521564 -3.512694 -6.835384 4.595262 -0.715322 -15.024936 -9.642323 0.000000 -0.000000 0.000000 -0.141824 3.639631 6.169789 -1.844383 -0.409589 2.958749 -0.866380 2.369722 -4.144316 -0.358173 18.813946 -1.220004 3.677701 21.189197 14.182454 -30.138601 -5.605442 1.563838 -51.089350 -5.711682 14.715206 1.231110 -19.434316 8.694280 -1.950826 -7.868564 3.234657 27.548971 9.960238 8.825808 54.516723 4.403848 20.018147 -1.213644 24.111752 10.423770 1.260258 7.480687 5.449117 
